<svg width="129" height="129" viewBox="0 0 129 129" fill="none" xmlns="http://www.w3.org/2000/svg">
<g opacity="0.1">
<g opacity="0.1">
<path d="M128.13 125.12V128.12H125.13" fill="#DDDDDD"/>
<path d="M128.13 125.12V128.12H125.13" stroke="#20263C" stroke-miterlimit="10"/>
</g>
<g opacity="0.1">
<path d="M119.36 128.12H6.88989Z" fill="#DDDDDD"/>
<path d="M119.36 128.12H6.88989" stroke="#20263C" stroke-miterlimit="10" stroke-dasharray="5.77 5.77"/>
</g>
<g opacity="0.1">
<path d="M4 128.12H1V125.12" fill="#DDDDDD"/>
<path d="M4 128.12H1V125.12" stroke="#20263C" stroke-miterlimit="10"/>
</g>
<g opacity="0.1">
<path d="M1 119.35V6.88Z" fill="#DDDDDD"/>
<path d="M1 119.35V6.88" stroke="#20263C" stroke-miterlimit="10" stroke-dasharray="5.77 5.77"/>
</g>
<g opacity="0.1">
<path d="M1 4V1H4" fill="#DDDDDD"/>
<path d="M1 4V1H4" stroke="#20263C" stroke-miterlimit="10"/>
</g>
<g opacity="0.1">
<path d="M9.77002 1H122.24Z" fill="#DDDDDD"/>
<path d="M9.77002 1H122.24" stroke="#20263C" stroke-miterlimit="10" stroke-dasharray="5.77 5.77"/>
</g>
<g opacity="0.1">
<path d="M125.13 1H128.13V4" fill="#DDDDDD"/>
<path d="M125.13 1H128.13V4" stroke="#20263C" stroke-miterlimit="10"/>
</g>
<g opacity="0.1">
<path d="M128.13 9.76001V122.24Z" fill="#DDDDDD"/>
<path d="M128.13 9.76001V122.24" stroke="#20263C" stroke-miterlimit="10" stroke-dasharray="5.77 5.77"/>
</g>
</g>
<path d="M65.5105 49.6404C67.4728 49.6422 69.4127 50.0683 71.2036 50.8907C72.9945 51.7132 74.5963 52.9136 75.9045 54.4136L80 50.6269C77.3785 47.637 73.9392 45.5269 70.1308 44.5721C66.3225 43.6172 62.322 43.8619 58.6512 45.2742C54.9805 46.6865 51.81 49.2008 49.5536 52.489C47.2971 55.7773 46.0595 59.6867 46.0021 63.7073C45.9447 67.7278 47.0703 71.6728 49.2319 75.0273C51.3936 78.3819 54.4909 80.9903 58.1198 82.5122C61.7486 84.034 65.7405 84.3987 69.5745 83.5586C73.4084 82.7185 76.9065 80.7126 79.6122 77.8027L75.6097 73.9045C74.0153 75.6146 72.0326 76.8928 69.8389 77.6249C67.6452 78.357 65.3087 78.5202 63.0385 78.0998C60.7682 77.6795 58.635 76.6888 56.8293 75.2162C55.0236 73.7436 53.6018 71.8351 52.6911 69.6612C51.7803 67.4873 51.4089 65.1158 51.6101 62.7588C51.8114 60.4017 52.5789 58.1325 53.8441 56.1541C55.1094 54.1756 56.8329 52.5495 58.8607 51.4212C60.8884 50.2928 63.1571 49.6974 65.4641 49.6881L65.5105 49.6404Z" fill="#DDDDDD"/>
<path d="M47 44.9093L42.9594 41C39.8029 44.0152 37.2982 47.5992 35.589 51.5463C33.8799 55.4933 33 59.7256 33 64C33 68.2744 33.8799 72.5067 35.589 76.4537C37.2982 80.4008 39.8029 83.9848 42.9594 87L47 83.0907C44.3683 80.5944 42.2789 77.6216 40.8528 74.3445C39.4268 71.0675 38.6925 67.5514 38.6925 64C38.6925 60.4486 39.4268 56.9325 40.8528 53.6555C42.2789 50.3784 44.3683 47.4056 47 44.9093Z" fill="#DDDDDD"/>
<path d="M85 37.4753C79.4907 33.2602 72.8335 30.9914 66 31V36.6759C71.6385 36.6705 77.1326 38.5351 81.6877 42L85 37.4753Z" fill="#DDDDDD"/>
<path d="M66 91.4006V97C72.3922 97.0072 78.6477 95.1435 84 91.6372L80.8559 87C76.433 89.879 71.2722 91.4078 66 91.4006Z" fill="#DDDDDD"/>
<path d="M66 84.4849C61.6698 84.482 57.445 83.187 53.8976 80.7751C50.3501 78.3632 47.6513 74.9508 46.1663 71L41 73.3303C42.9455 78.2367 46.3755 82.4556 50.8382 85.4312C55.3009 88.4069 60.5869 89.9997 66 90V84.4849Z" fill="#DDDDDD"/>
<path d="M45.517 63C45.8524 57.7395 48.1558 52.8049 51.9597 49.1974C55.7636 45.59 60.7832 43.5798 66 43.5747V38C59.3193 37.9998 52.8943 40.595 48.0546 45.2485C43.2149 49.9021 40.331 56.2577 40 63H45.517Z" fill="#DDDDDD"/>
</svg>
