<?xml version="1.0" standalone="no"?>
<!DOCTYPE svg PUBLIC "-//W3C//DTD SVG 20010904//EN"
 "http://www.w3.org/TR/2001/REC-SVG-20010904/DTD/svg10.dtd">
<svg version="1.0" xmlns="http://www.w3.org/2000/svg"
 width="700.000000pt" height="700.000000pt" viewBox="0 0 700.000000 700.000000"
 preserveAspectRatio="xMidYMid meet">
<metadata>
Created by potrace 1.14, written by Peter Selinger 2001-2017
</metadata>
<g transform="translate(0.000000,700.000000) scale(0.100000,-0.100000)"
fill="#000000" stroke="none">
<path d="M3586 5311 c-3 -4 -5 -73 -5 -154 l-1 -147 33 -1 c272 -6 567 -105
781 -260 22 -16 40 -28 41 -26 1 1 33 45 70 97 38 52 71 97 75 100 4 3 12 15
18 26 13 24 5 32 -112 108 -126 83 -397 197 -521 221 -189 35 -369 52 -379 36z"/>
<path d="M3477 4934 c-1 -1 -31 -4 -67 -8 -139 -13 -316 -67 -465 -143 -259
-131 -495 -369 -624 -630 -84 -172 -126 -317 -147 -515 l-6 -58 151 0 c144 0
151 1 151 20 0 11 1 23 2 28 1 4 5 27 9 52 16 90 20 106 45 185 32 98 110 248
172 329 130 170 335 318 523 380 116 37 213 56 297 57 28 1 54 4 57 8 5 8 8
121 6 233 l-1 67 -50 -2 c-28 0 -52 -2 -53 -3z"/>
<path d="M2274 4718 c-213 -227 -357 -488 -433 -783 -10 -39 -13 -52 -25 -125
-3 -19 -9 -48 -12 -65 -10 -51 -13 -337 -4 -395 4 -30 11 -75 14 -100 37 -258
186 -587 364 -805 40 -49 142 -155 151 -158 5 -1 57 45 115 102 l106 104 -54
56 c-168 175 -286 385 -350 627 -34 130 -40 182 -41 344 0 160 7 224 39 351
62 242 172 441 355 639 l50 55 -107 102 c-59 57 -110 103 -113 103 -3 0 -28
-24 -55 -52z"/>
<path d="M3365 4595 c-74 -15 -165 -42 -202 -60 -16 -7 -46 -21 -68 -31 -117
-53 -289 -195 -378 -314 -204 -272 -272 -639 -179 -960 9 -30 17 -60 18 -66 1
-6 20 -51 43 -98 127 -272 346 -472 617 -565 130 -45 223 -59 366 -55 254 6
492 102 681 276 l58 53 -107 107 -107 106 -71 -60 c-88 -74 -222 -140 -331
-164 -68 -14 -231 -13 -300 3 -265 59 -476 248 -561 501 -30 90 -32 98 -42
201 -7 71 1 161 23 266 23 109 121 271 220 363 141 132 287 191 513 206 96 7
240 -31 352 -91 75 -41 98 -58 162 -119 l47 -45 42 38 c24 21 74 67 111 102
l69 65 -53 54 c-133 136 -323 238 -522 281 -103 23 -304 25 -401 6z"/>
<path d="M2360 3083 c-69 -31 -127 -58 -129 -60 -8 -6 42 -118 87 -193 147
-245 366 -445 620 -566 156 -75 350 -129 501 -140 47 -3 98 -7 114 -9 29 -3
29 -4 29 100 0 19 -1 73 -1 119 l-1 84 -37 0 c-416 7 -817 264 -998 640 -21
45 -44 82 -50 82 -5 -1 -66 -26 -135 -57z"/>
<path d="M4335 2248 c-75 -50 -300 -144 -395 -164 -149 -31 -229 -42 -333 -43
l-27 -1 2 -152 3 -153 70 3 c70 3 129 9 175 17 14 3 42 7 63 10 159 19 457
130 610 228 l57 37 -69 97 c-37 54 -74 108 -80 121 -14 27 -36 27 -76 0z"/>
</g>
</svg>
